<svg version="1.2" xmlns="http://www.w3.org/2000/svg" viewBox="0 0 50 50" width="50" height="50"><style>.s0{fill:#186c4a}</style><path class="s0" d="m3.2 17.4c2.2-5.4 2.9-7.5 5.2-9.6q3.5-3.2 7.6-4.7q4.2-1.5 8.8-1.4q4.7 0.1 9 2q4.3 2 7.4 5.5q3.2 3.4 4.7 7.5q1.5 4.2 1.4 8.9q-0.1 4.7-2.1 9q-2.4 5.2-6.9 8.7q-4.4 3.5-9.9 4.5q-5.5 1.1-10.9-0.5l0.9-1.5c3.8 0.8 11.9-2.3 15.5-4c3.5-1.8 6.4-6.3 8.1-9.9c0.9-2.1 1-7.3 1-9.5c0.1-2.3-1.8-4.6-2.5-6.6c-0.7-1.9-2-2.9-3.5-4.5c-1.4-1.7-4.3-2.5-6.3-3.4c-2.1-0.9-4.9-0.7-7.2-0.7c-2.2-0.1-4.3 0.7-6.3 1.4c-2 0.7-3.8 2.3-5.5 3.8c-1.6 1.5-2.6 4.2-3.6 6.2c-1.6 3.7-2.7 11.6-0.1 13.8c6.4 5.1 2.5 10.4-2.5 5.5c-2.7-2.6-3.3-7.9-3.5-11.7c-0.1-3.7-1-3.4 1.2-8.8z" /></svg>